<?xml version="1.0" encoding="utf-8"?>
<!-- Generator: Adobe Illustrator 27.2.0, SVG Export Plug-In . SVG Version: 6.00 Build 0)  -->
<svg version="1.1" id="Calque_1" xmlns="http://www.w3.org/2000/svg" xmlns:xlink="http://www.w3.org/1999/xlink" x="0px" y="0px"
	 viewBox="0 0 21 20.5" style="enable-background:new 0 0 21 20.5;" xml:space="preserve">
<style type="text/css">
	.st0{fill:#FFFFFF;}
</style>
<g>
	<path class="st0" d="M16.1,14.2c-1.7-0.4-3.2-1.4-4.4-2.6l0.6-3.3c-0.8,0.1-1.6,0.2-2.5,0.1C9.7,7.8,9.6,7.3,9.5,6.7L8.9,1.8
		c1.7,0.3,3.6,0.3,5.7,0c2-0.3,3.9-0.7,5.5-1.5l0.6,4.9C21.1,8.9,19.3,12.4,16.1,14.2z M9.9,12.5C9.8,13,9,13.3,8.1,13.2
		c-0.9-0.1-1.5-0.7-1.4-1.3c0.1-0.6,0.9-0.9,1.7-0.7C9.3,11.4,9.9,11.9,9.9,12.5 M4.9,17.1c-1.4-0.2-2.4-1.3-2.3-2.5
		c0.6,0.4,1.5,0.8,2.6,1c1,0.2,2,0.1,2.7-0.1C7.6,16.7,6.3,17.4,4.9,17.1 M1.9,11.1c0.1-0.6,0.9-0.9,1.7-0.7
		c0.9,0.2,1.5,0.7,1.4,1.3c-0.1,0.6-0.9,0.9-1.7,0.7S1.8,11.6,1.9,11.1 M20.9,5.3L20.2,0l-0.2,0.1c-1.6,0.7-3.5,1.2-5.6,1.5
		c-2.1,0.3-4.1,0.2-5.7-0.1l-0.2,0l0.7,5.3c0.1,0.6,0.2,1.1,0.3,1.6c-1,0-2-0.1-3.1-0.3C4.4,7.6,2.5,7,1,6.3l-0.9,5
		c-0.6,3.8,1.2,7.4,4.2,9.2c3.5-0.7,6.4-3.5,7.1-7.2l0.2-1.4c1.2,1.3,2.7,2.1,4.4,2.6l0,0l0,0c1.6-0.9,2.9-2.2,3.8-3.8
		C20.8,9,21.1,7.1,20.9,5.3z"/>
	<path class="st0" d="M16.1,14.2c-1.7-0.4-3.2-1.4-4.4-2.6l0.6-3.3c-0.8,0.1-1.6,0.2-2.5,0.1C9.7,7.8,9.6,7.3,9.5,6.7L8.9,1.8
		c1.7,0.3,3.6,0.3,5.7,0c2-0.3,3.9-0.7,5.5-1.5l0.6,4.9C21.1,8.9,19.3,12.4,16.1,14.2z M9.9,12.5C9.8,13,9,13.3,8.1,13.2
		c-0.9-0.1-1.5-0.7-1.4-1.3c0.1-0.6,0.9-0.9,1.7-0.7C9.3,11.4,9.9,11.9,9.9,12.5z M4.9,17.1c-1.4-0.2-2.4-1.3-2.3-2.5
		c0.6,0.4,1.5,0.8,2.6,1c1,0.2,2,0.1,2.7-0.1C7.6,16.7,6.3,17.4,4.9,17.1z M1.9,11.1c0.1-0.6,0.9-0.9,1.7-0.7
		c0.9,0.2,1.5,0.7,1.4,1.3c-0.1,0.6-0.9,0.9-1.7,0.7S1.8,11.6,1.9,11.1z M20.9,5.3L20.2,0l-0.2,0.1c-1.6,0.7-3.5,1.2-5.6,1.5
		c-2.1,0.3-4.1,0.2-5.7-0.1l-0.2,0l0.7,5.3c0.1,0.6,0.2,1.1,0.3,1.6c-1,0-2-0.1-3.1-0.3C4.4,7.6,2.5,7,1,6.3l-0.9,5
		c-0.6,3.8,1.2,7.4,4.2,9.2c3.5-0.7,6.4-3.5,7.1-7.2l0.2-1.4c1.2,1.3,2.7,2.1,4.4,2.6l0,0l0,0c1.6-0.9,2.9-2.2,3.8-3.8
		C20.8,9,21.1,7.1,20.9,5.3z"/>
	<path class="st0" d="M12.7,6.5c-0.7,0.1-1.4-0.2-1.4-0.6C11.2,5.5,11.8,5,12.5,5c0.7-0.1,1.4,0.2,1.4,0.6C13.9,6,13.4,6.4,12.7,6.5
		 M14.1,5.5c-0.1-0.6-0.8-0.9-1.7-0.8c-0.9,0.1-1.5,0.6-1.4,1.2c0.1,0.6,0.8,0.9,1.7,0.8C13.6,6.6,14.2,6.1,14.1,5.5"/>
	<path class="st0" d="M12.7,6.5c-0.7,0.1-1.4-0.2-1.4-0.6C11.2,5.5,11.8,5,12.5,5c0.7-0.1,1.4,0.2,1.4,0.6C13.9,6,13.4,6.4,12.7,6.5
		z M14.1,5.5c-0.1-0.6-0.8-0.9-1.7-0.8c-0.9,0.1-1.5,0.6-1.4,1.2c0.1,0.6,0.8,0.9,1.7,0.8C13.6,6.6,14.2,6.1,14.1,5.5z"/>
	<path class="st0" d="M15.6,10.1c-0.9,0.1-1.7,0.3-2.3,0.7c0.1-0.9,1-1.7,2.2-1.8c1.2-0.1,2.2,0.4,2.6,1.2
		C17.4,10.1,16.5,10,15.6,10.1z M15.5,8.8C14.1,8.9,13,9.9,13,11v0.2l0.2-0.1c0.6-0.4,1.5-0.6,2.4-0.8c1-0.1,1.9,0,2.6,0.2l0.2,0.1
		l0-0.2C18.1,9.3,16.8,8.6,15.5,8.8"/>
	<path class="st0" d="M15.6,10.1c-0.9,0.1-1.7,0.3-2.3,0.7c0.1-0.9,1-1.7,2.2-1.8c1.2-0.1,2.2,0.4,2.6,1.2
		C17.4,10.1,16.5,10,15.6,10.1z M15.5,8.8C14.1,8.9,13,9.9,13,11v0.2l0.2-0.1c0.6-0.4,1.5-0.6,2.4-0.8c1-0.1,1.9,0,2.6,0.2l0.2,0.1
		l0-0.2C18.1,9.3,16.8,8.6,15.5,8.8z"/>
	<path class="st0" d="M17.7,5.9c-0.7,0.1-1.4-0.2-1.4-0.6c-0.1-0.4,0.5-0.9,1.2-0.9c0.7-0.1,1.4,0.2,1.4,0.6
		C18.9,5.3,18.4,5.8,17.7,5.9 M17.4,4.1c-0.9,0.1-1.5,0.6-1.4,1.2c0.1,0.6,0.8,0.9,1.7,0.8c0.9-0.1,1.5-0.6,1.4-1.2
		C19.1,4.3,18.3,4,17.4,4.1"/>
	<path class="st0" d="M17.7,5.9c-0.7,0.1-1.4-0.2-1.4-0.6c-0.1-0.4,0.5-0.9,1.2-0.9c0.7-0.1,1.4,0.2,1.4,0.6
		C18.9,5.3,18.4,5.8,17.7,5.9z M17.4,4.1c-0.9,0.1-1.5,0.6-1.4,1.2c0.1,0.6,0.8,0.9,1.7,0.8c0.9-0.1,1.5-0.6,1.4-1.2
		C19.1,4.3,18.3,4,17.4,4.1z"/>
</g>
</svg>
