<?xml version="1.0" encoding="utf-8"?>
<!-- Generator: Adobe Illustrator 27.2.0, SVG Export Plug-In . SVG Version: 6.00 Build 0)  -->
<svg version="1.1" id="Calque_1" xmlns="http://www.w3.org/2000/svg" xmlns:xlink="http://www.w3.org/1999/xlink" x="0px" y="0px"
	 viewBox="0 0 20.6 20.5" style="enable-background:new 0 0 20.6 20.5;" xml:space="preserve">
<style type="text/css">
	.st0{fill:#FFFFFF;}
</style>
<path class="st0" d="M5.5,5.1H15V3c0-0.7-0.6-1.3-1.3-1.3H6.8C6.1,1.7,5.5,2.3,5.5,3V5.1z M10.3,11.7c0.3,0,0.6,0.3,0.6,0.6V14
	c0,0.3-0.3,0.6-0.6,0.6c-0.3,0-0.6-0.3-0.6-0.6v-1.7C9.7,11.9,10,11.7,10.3,11.7 M20.6,7.7v3.2L12.2,12v-0.2c0-1.1-0.9-1.9-1.9-1.9
	s-1.9,0.9-1.9,1.9V12L0,10.9V7.7c0-1.4,1.2-2.6,2.6-2.6h1.3V2.6C3.9,1.1,5,0,6.4,0h7.7c1.4,0,2.6,1.1,2.6,2.6v2.6H18
	C19.4,5.1,20.6,6.3,20.6,7.7 M20.6,12.2V18c0,1.4-1.2,2.6-2.6,2.6H2.6C1.2,20.5,0,19.4,0,18v-5.8l8.4,1.1v0.6c0,1.1,0.9,1.9,1.9,1.9
	s1.9-0.9,1.9-1.9v-0.6L20.6,12.2z"/>
</svg>
