<?xml version="1.0" encoding="utf-8"?>
<!-- Generator: Adobe Illustrator 27.2.0, SVG Export Plug-In . SVG Version: 6.00 Build 0)  -->
<svg version="1.1" id="Calque_1" xmlns="http://www.w3.org/2000/svg" xmlns:xlink="http://www.w3.org/1999/xlink" x="0px" y="0px"
	 viewBox="0 0 20.6 20.6" style="enable-background:new 0 0 20.6 20.6;" xml:space="preserve">
<style type="text/css">
	.st0{fill:#FFFFFF;}
</style>
<path class="st0" d="M7.4,20.6H2.5c-0.3,0-0.5-0.2-0.5-0.5v-9.3H0.5c-0.2,0-0.4-0.1-0.5-0.3C0,10.3,0,10.1,0.1,10L10,0.1
	c0.2-0.2,0.5-0.2,0.7,0l9.8,9.8c0.1,0.1,0.2,0.4,0.1,0.5c-0.1,0.2-0.3,0.3-0.5,0.3h-1.5v9.3c0,0.3-0.2,0.5-0.5,0.5h-4.9
	c-0.1,0-0.3-0.1-0.3-0.1c-0.1-0.1-0.1-0.2-0.1-0.3v-5.9c0-0.3-0.2-0.5-0.5-0.5H8.4c-0.3,0-0.5,0.2-0.5,0.5v5.9
	c0,0.1-0.1,0.3-0.1,0.3C7.6,20.6,7.5,20.6,7.4,20.6z"/>
</svg>
