<?xml version="1.0" encoding="UTF-8"?>
<svg id="Calque_1" data-name="Calque 1" xmlns="http://www.w3.org/2000/svg" version="1.1" viewBox="0 0 134 46.5">
  <defs>
    <style>
      .cls-1, .cls-2, .cls-3, .cls-4 {
        isolation: isolate;
      }

      .cls-2 {
        letter-spacing: 0em;
      }

      .cls-2, .cls-5, .cls-3, .cls-4 {
        fill: #1d1d1b;
      }

      .cls-2, .cls-3 {
        font-size: 19.5px;
      }

      .cls-2, .cls-3, .cls-4 {
        font-family: Nunito-Bold, Nunito;
        font-weight: 700;
      }

      .cls-5 {
        stroke-width: 0px;
      }

      .cls-3 {
        letter-spacing: 0em;
      }

      .cls-4 {
        font-size: 27.8px;
        letter-spacing: 0em;
      }
    </style>
  </defs>
  <path class="cls-5" d="M16,28.7c-1.1,0-2.2,0-3.3.1.8-2.5,1.7-4.9,2.8-7.2,2.5-.2,5,0,7.4.6.3,0,.6-.2.7-.6,0-.3-.2-.5-.4-.6-2.3-.6-4.7-.8-7.1-.7.8-1.9,1.8-3.7,2.9-5.4.2-.3,0-.7-.2-.8-.3-.2-.7,0-.8.2-1.2,2-2.3,4-3.2,6.1-2.9.2-5.7.9-8.3,2.1,2.3-4.5,6.2-12,10.6-20.3.2-.3,0-.7-.2-.8,0,0,0,0,0,0-.3-.2-.7,0-.8.2C3.7,25.2,4.1,24.2,4.6,24.6c.1,0,.3.1.4.2.1,0,.3,0,.4-.2,2-1.5,5.2-2.4,8.7-2.9-1,2.4-1.9,4.8-2.7,7.3h-1c-.3.1-.6.4-.6.8,0,.3.3.6.7.6h.5c-.4,1.3-.7,2.6-1.1,4.1-.3-.2-.6-.4-.9-.6-.3-.2-.7-.1-.9.1s-.1.7.1.9c.4.3.9.6,1.4.9v.4c-.2.3,0,.6.3.7,0,0,0,0,0,0,0,0,0,0,.1,0,.3,0,.5-.2.6-.5,0-.1,0-.3,0-.4.6.1,1.3.2,2,.2,1.3,0,2.6-.2,3.8-.7,1.4-.7,2.3-2.2,2.3-3.8,0-1.6-1.3-2.9-2.8-3ZM16,34.3c-1.6.6-3.3.8-4.9.5.4-1.7.8-3.2,1.3-4.7,1.2-.2,2.3-.3,3.5-.2,1,0,1.7.8,1.8,1.8,0,1.1-.6,2.2-1.7,2.7Z"/>
  <path class="cls-5" d="M21.4,28.6c-.3,0-.7.1-.7.4,0,0,0,0,0,0l-1.5,6.3c0,.3.1.7.4.7h.1c.3,0,.5-.2.6-.5l1.5-6.3c0-.3-.1-.6-.5-.7Z"/>
  <path class="cls-5" d="M27.4,30.5c-.3-.9-1.2-1.5-2.1-1.6-.7,0-1.3.1-1.8.6-.5.5-.7,1.1-.6,1.8.1,1,1,1.3,1.7,1.6s1,.5,1,.8c0,.3,0,.7-.3.9-.3.2-.7.3-1,.2-.5,0-1-.4-1.3-.8-.2-.3-.5-.5-.8-.3-.3.1-.4.5-.3.8,0,0,0,0,0,0,.4.9,1.4,1.5,2.4,1.6h0c.7,0,1.4-.2,1.9-.7.4-.5.7-1.1.6-1.7,0-1.2-1.1-1.6-1.8-2s-.9-.3-.9-.6c0-.3,0-.6.2-.8.2-.2.5-.3.8-.3.6,0,.8.3,1.1,1,.1.3.5.4.8.3.3-.1.4-.5.3-.8h0Z"/>
  <path class="cls-5" d="M21.1,26.9c0,.4.3.7.7.7.4,0,.7-.3.7-.7,0-.4-.3-.7-.7-.7-.4,0-.7.3-.7.7Z"/>
  <path class="cls-5" d="M33.1,1.7v29.1c0,.4,0,.7,0,.8-.5,4.5-1.8,7.4-4.1,9.8-2.9,3-7,4.6-12.8,4.7h-.5c-4.6,0-8.3-1.4-11-4.1-2.1-1.9-3.5-4.4-4.1-7.1C.4,33.7.1,32.5,0,31.3c0-.8.4-1.5,1.2-1.6,0,0,.1,0,.2,0h0c.7,0,1.3.5,1.4,1.2.2,1.3.4,2.6.8,3.9.5,2,1.5,3.8,3.1,5.2,2.3,2.3,5.5,3.4,9.5,3.3,5-.1,8.5-1.4,10.8-3.8,2-2,3.2-4.6,3.3-7.5,0-.6,0-1.3,0-1.4V1.8c0-.8.6-1.4,1.4-1.4,0,0,0,0,0,0h0c.7,0,1.3.5,1.4,1.3Z"/>
  <g class="cls-1">
    <text class="cls-2" transform="translate(36.4 19.4)"><tspan x="0" y="0">n</tspan></text>
    <text class="cls-3" transform="translate(47.5 19.4)"><tspan x="0" y="0">f</tspan></text>
    <text class="cls-2" transform="translate(54 19.4)"><tspan x="0" y="0">ormation</tspan></text>
  </g>
  <text class="cls-4" transform="translate(35.9 37.7)"><tspan x="0" y="0">eunesse</tspan></text>
</svg>