<svg id="Calque_1" data-name="Calque 1" xmlns="http://www.w3.org/2000/svg" viewBox="0 0 134.02 46.53"><defs><style>.cls-1,.cls-2,.cls-5{fill:#1d1d1b;}.cls-2{font-size:19.84px;letter-spacing:-0.02em;}.cls-2,.cls-5{font-family:Nunito-Bold, Nunito;font-weight:700;}.cls-3{letter-spacing:-0.02em;}.cls-4{letter-spacing:-0.02em;}.cls-5{font-size:28.35px;letter-spacing:-0.04em;}</style></defs><path class="cls-1" d="M16.35,28.8a13.75,13.75,0,0,0-3.32.13,64.68,64.68,0,0,1,2.82-7.38,25.29,25.29,0,0,1,7.59.66A.62.62,0,0,0,23.67,21a25.11,25.11,0,0,0-7.22-.73,48.71,48.71,0,0,1,2.91-5.49.62.62,0,1,0-1.07-.63A49.16,49.16,0,0,0,15,20.39a25.56,25.56,0,0,0-8.43,2.15C8.9,18,12.84,10.28,17.35,1.85A.61.61,0,0,0,17.1,1a.62.62,0,0,0-.84.25C3.74,25.2,4.2,24.19,4.73,24.64a1.36,1.36,0,0,0,.42.17.91.91,0,0,0,.41-.19c2-1.57,5.32-2.47,8.85-2.91a66.77,66.77,0,0,0-2.75,7.43l-1,.1a.62.62,0,0,0,.11,1.24l.49-.05c-.38,1.33-.76,2.74-1.14,4.26a10.22,10.22,0,0,1-.93-.63.62.62,0,1,0-.75,1,9.63,9.63,0,0,0,1.39.88l-.11.44a.61.61,0,0,0,.46.74.36.36,0,0,0,.14,0,.62.62,0,0,0,.61-.48c0-.14.07-.28.1-.42a12.31,12.31,0,0,0,2,.16,8.08,8.08,0,0,0,3.86-.73,4.31,4.31,0,0,0,2.34-3.84A3.07,3.07,0,0,0,16.35,28.8Zm-.05,5.76a9.39,9.39,0,0,1-5,.47c.42-1.72.85-3.31,1.29-4.79A15.56,15.56,0,0,1,16.17,30,1.94,1.94,0,0,1,18,31.82,3.05,3.05,0,0,1,16.3,34.56Z"/><path class="cls-1" d="M21.82,28.7a.62.62,0,0,0-.75.46l-1.56,6.42a.62.62,0,0,0,.45.75l.15,0a.62.62,0,0,0,.6-.48l1.57-6.42A.63.63,0,0,0,21.82,28.7Z"/><path class="cls-1" d="M27.91,30.62A2.49,2.49,0,0,0,25.73,29a2.33,2.33,0,0,0-1.85.62,2.21,2.21,0,0,0-.58,1.84c.13,1,1,1.33,1.71,1.63s1,.46,1,.83a.94.94,0,0,1-.34.94,1.28,1.28,0,0,1-1.06.25,2,2,0,0,1-1.32-.83c-.22-.27-.5-.47-.82-.33a.62.62,0,0,0-.32.82,2.77,2.77,0,0,0,2.47,1.59h.06a2.65,2.65,0,0,0,1.92-.67,2.39,2.39,0,0,0,.65-1.77c0-1.24-1.09-1.68-1.81-2s-.87-.27-.95-.62a1,1,0,0,1,.24-.82,1,1,0,0,1,.86-.26c.63.05.86.33,1.16,1a.62.62,0,1,0,1.12-.54Z"/><path class="cls-1" d="M21.45,27a.73.73,0,0,0,.73.73A.73.73,0,0,0,22.9,27a.72.72,0,0,0-.72-.72A.73.73,0,0,0,21.45,27Z"/><path class="cls-1" d="M33.74,1.29V30.92c0,.39-.05.74-.05.8-.5,4.57-1.86,7.58-4.18,10-2.91,3.08-7.18,4.64-13,4.77H16c-4.64,0-8.41-1.39-11.21-4.16A13.34,13.34,0,0,1,.66,35.08,28.87,28.87,0,0,1,0,31.5a1.43,1.43,0,0,1,1.41-1.61h0a1.41,1.41,0,0,1,1.4,1.23,25.22,25.22,0,0,0,.79,4,10.09,10.09,0,0,0,3.11,5.28c2.35,2.3,5.6,3.43,9.67,3.34,5.07-.12,8.68-1.38,11.05-3.88a11.16,11.16,0,0,0,3.36-7.6c.06-.65.08-1.33.08-1.39V1.42A1.42,1.42,0,0,1,32.3,0h0A1.43,1.43,0,0,1,33.74,1.29Z"/><text class="cls-2" transform="translate(37.1 19.33)">n<tspan class="cls-3" x="11.27" y="0">f</tspan><tspan class="cls-4" x="17.94" y="0">ormation</tspan></text><text class="cls-5" transform="translate(36.6 37.97)">eunesse</text></svg>