<?xml version="1.0" encoding="utf-8"?>
<!-- Generator: Adobe Illustrator 27.2.0, SVG Export Plug-In . SVG Version: 6.00 Build 0)  -->
<svg version="1.1" id="Calque_1" xmlns="http://www.w3.org/2000/svg" xmlns:xlink="http://www.w3.org/1999/xlink" x="0px" y="0px"
	 viewBox="0 0 134.016 46.534" style="enable-background:new 0 0 134.016 46.534;" xml:space="preserve">
<style type="text/css">
	.st0{fill:#FFFFFF;}
	.st1{fill:none;}
	.st2{font-family:'Nunito-Bold';}
	.st3{font-size:19.8425px;}
	.st4{font-size:28.3465px;}
	.st5{letter-spacing:-1;}
</style>
<g>
	<path class="st0" d="M16.346,28.801c-0.931-0.138-2.353,0-3.319,0.129c0.86-2.713,1.782-5.096,2.82-7.376
		c3.17-0.274,5.308,0.238,7.595,0.657c0.345,0.062,0.661-0.162,0.722-0.499s-0.162-0.66-0.499-0.722
		c-2.175-0.398-4.138-0.936-7.215-0.727c1.213-2.516,1.286-2.775,2.907-5.488c0.175-0.294,0.08-0.675-0.215-0.851
		c-0.293-0.175-0.674-0.08-0.851,0.215c-1.783,2.985-1.972,3.465-3.277,6.248c-3.068,0.32-6.113,1-8.426,2.149
		C8.9,18.001,12.841,10.281,17.355,1.849c0.162-0.302,0.048-0.678-0.254-0.84c-0.302-0.161-0.682-0.049-0.84,0.254
		C3.745,25.201,4.196,24.194,4.729,24.641c0,0,0.291,0.169,0.418,0.171c0.176,0.002,0.413-0.194,0.413-0.194
		c1.988-1.563,5.323-2.471,8.855-2.911c-1.009,2.284-1.91,4.687-2.755,7.431c-0.201,0.026-0.51,0.061-0.993,0.108
		c-0.341,0.032-0.591,0.335-0.559,0.677c0.033,0.341,0.342,0.589,0.677,0.558c0.188-0.018,0.345-0.034,0.489-0.049
		c-0.387,1.33-0.765,2.745-1.139,4.261c-0.263-0.149-0.64-0.407-0.932-0.63c-0.272-0.209-0.662-0.155-0.87,0.117
		c-0.208,0.272-0.155,0.661,0.117,0.869c0.151,0.115,0.877,0.658,1.388,0.879c-0.036,0.15-0.071,0.291-0.107,0.444
		c-0.078,0.334,0.13,0.667,0.463,0.745c0.047,0.011,0.095,0.016,0.141,0.016c0.282,0,0.537-0.193,0.604-0.479
		c0.034-0.144,0.067-0.277,0.101-0.419c0.609,0.103,1.286,0.163,1.984,0.163c1.427,0,2.931-0.174,3.858-0.733
		c1.337-0.806,2.239-1.843,2.342-3.845C19.301,30.291,18.04,29.049,16.346,28.801z M16.301,34.564
		c-1.065,0.565-3.295,0.737-4.973,0.463c0.424-1.721,0.853-3.303,1.296-4.785c0.785-0.119,2.558-0.354,3.542-0.214
		c0.875,0.129,1.824,0.743,1.816,1.789C17.971,33.355,16.978,34.207,16.301,34.564z"/>
	<path class="st0" d="M21.821,28.7c-0.331-0.078-0.668,0.123-0.749,0.456l-1.564,6.425c-0.081,0.333,0.123,0.668,0.456,0.749
		c0.049,0.012,0.099,0.018,0.147,0.018c0.279,0,0.533-0.189,0.602-0.474l1.564-6.425C22.359,29.116,22.154,28.781,21.821,28.7z"/>
	<path class="st0" d="M27.912,30.625c-0.385-0.802-0.916-1.558-2.183-1.662c-0.723-0.065-1.394,0.165-1.844,0.619
		c-0.314,0.315-0.67,0.887-0.583,1.837c0.125,0.986,1.011,1.327,1.71,1.633c0.788,0.345,0.984,0.457,1.037,0.831
		c0.079,0.558-0.155,0.752-0.341,0.935c-0.268,0.264-0.645,0.288-1.053,0.255c-0.661-0.053-1.118-0.572-1.327-0.835
		c-0.213-0.268-0.499-0.464-0.815-0.324c-0.314,0.135-0.459,0.5-0.324,0.814c0.028,0.064,0.696,1.568,2.476,1.59
		c0.018,0,0.037,0,0.055,0c0.827,0,1.473-0.225,1.922-0.668c0.43-0.426,0.648-1.021,0.648-1.768c0-1.242-1.088-1.687-1.809-1.979
		c-0.569-0.232-0.868-0.277-0.946-0.618c-0.033-0.363,0.045-0.642,0.231-0.829c0.191-0.194,0.506-0.291,0.86-0.257
		c0.632,0.052,0.862,0.326,1.168,0.963c0.149,0.31,0.518,0.437,0.828,0.291C27.93,31.304,28.06,30.933,27.912,30.625z"/>
	<path class="st0" d="M21.452,27.012c0,0.401,0.325,0.726,0.726,0.726s0.726-0.325,0.726-0.726s-0.325-0.726-0.726-0.726
		S21.452,26.611,21.452,27.012z"/>
</g>
<g>
	<path class="st0" d="M33.737,1.288l0,29.636c-0.015,0.384-0.044,0.734-0.051,0.792c-0.498,4.577-1.856,7.584-4.181,10.048
		c-2.9,3.08-7.17,4.64-13.04,4.77h-0.51c-4.64,0-8.41-1.39-11.21-4.16c-2.13-2.1-3.215-3.793-4.085-7.293
		c-0.283-1.123-0.5-2.317-0.65-3.58c-0.101-0.852,0.553-1.61,1.411-1.61h0.005c0.71,0,1.321,0.525,1.405,1.231
		c0.171,1.423,0.437,2.743,0.788,3.959c0.76,2.67,1.535,3.713,3.115,5.283c2.34,2.3,5.59,3.43,9.67,3.34
		c5.07-0.12,8.68-1.38,11.04-3.88c1.844-1.963,3.032-3.813,3.365-7.606c0.056-0.645,0.083-1.328,0.083-1.391L30.885,1.42
		c0-0.784,0.636-1.42,1.42-1.42h0C33.089,0,33.725,0.636,33.737,1.288z"/>
</g>
<rect x="37.095" y="5.244" class="st1" width="102.213" height="19.66"/>
<text transform="matrix(1 0 0 1 37.095 19.3315)" class="st0 st2 st3">nformation</text>
<rect x="36.597" y="17.839" class="st1" width="112.271" height="32.255"/>
<text transform="matrix(1 0 0 1 36.5973 37.9658)" class="st0 st2 st4 st5">eunesse</text>
</svg>
