<?xml version="1.0" encoding="utf-8"?>
<!-- Generator: Adobe Illustrator 27.2.0, SVG Export Plug-In . SVG Version: 6.00 Build 0)  -->
<svg version="1.1" id="Calque_1" xmlns="http://www.w3.org/2000/svg" xmlns:xlink="http://www.w3.org/1999/xlink" x="0px" y="0px"
	 viewBox="0 0 19.9 20.6" style="enable-background:new 0 0 19.9 20.6;" xml:space="preserve">
<style type="text/css">
	.st0{fill:#FFFFFF;}
</style>
<path class="st0" d="M18.9,0.3C18.6,0,18.2,0,18,0.3l-5.2,7.1l-2.3,3.1L8.7,8.2C9.5,7.5,9.6,6.3,9,5.5L5.2,0.3C5,0,4.6-0.1,4.3,0.1
	C4,0.3,4,0.7,4.2,1l3.1,4.3c0.1,0.1,0.1,0.3-0.1,0.4L6.7,6.1C6.6,6.2,6.4,6.2,6.3,6L3.2,1.7C3,1.5,2.6,1.4,2.3,1.6
	C2,1.8,1.9,2.2,2.2,2.5l3.1,4.3c0.1,0.1,0.1,0.3-0.1,0.4L4.7,7.6C4.5,7.7,4.4,7.6,4.3,7.5L1.1,3.2C1,2.9,0.5,2.9,0.3,3.1
	C0,3.3-0.1,3.7,0.1,4l3.8,5.2c0.7,0.9,1.9,1.1,2.8,0.6l2.1,3l-4.1,5.5c-0.5,0.6-0.3,1.6,0.3,2.1s1.6,0.3,2.1-0.3l3.4-4.8l3.4,4.8
	c0.5,0.7,1.4,0.8,2.1,0.3c0.6-0.5,0.8-1.4,0.3-2.1l-4.1-5.5l1.4-2l0.5,0.3c0.8,0.6,2,0.4,2.5-0.5l1.1-1.8c1-1.6,1.7-3.2,2.1-5
	C20.1,2.6,19.8,1.2,18.9,0.3z"/>
</svg>
