<?xml version="1.0" encoding="utf-8"?>
<!-- Generator: Adobe Illustrator 27.2.0, SVG Export Plug-In . SVG Version: 6.00 Build 0)  -->
<svg version="1.1" id="Calque_1" xmlns="http://www.w3.org/2000/svg" xmlns:xlink="http://www.w3.org/1999/xlink" x="0px" y="0px"
	 viewBox="0 0 22.5 20.5" style="enable-background:new 0 0 22.5 20.5;" xml:space="preserve">
<style type="text/css">
	.st0{fill:#FFFFFF;}
</style>
<path class="st0" d="M19,9.1l-2.3,2.6c-0.2,0.2-0.4,0.3-0.6,0.2c-0.2-0.1-0.4-0.2-0.5-0.4l-1.5-4.2l-1.2,2.6
	c-0.1,0.2-0.3,0.4-0.6,0.4h-1.4l-2,3.2c-0.1,0.2-0.3,0.3-0.5,0.3H8.3c-0.2,0-0.5-0.2-0.6-0.4L5.4,7.9l-1,2.1
	c-0.1,0.2-0.3,0.4-0.6,0.4H1.1c0.3,0.4,0.5,0.8,0.9,1.1l8.8,8.8c0.1,0.1,0.3,0.2,0.5,0.2s0.3-0.1,0.5-0.2l8.8-8.8
	c0.7-0.7,1.2-1.5,1.6-2.5H19z"/>
<path class="st0" d="M3.4,9.1L4.8,6c0.1-0.2,0.3-0.4,0.6-0.4S5.9,5.8,6,6.1l2.5,5.7L10,9.3C10.2,9.1,10.4,9,10.6,9h1.3l1.7-3.7
	C13.7,5,14,4.9,14.2,4.9c0.3,0,0.5,0.2,0.6,0.4l1.6,4.6l1.8-2c0.1-0.1,0.3-0.2,0.5-0.2h3.7c0.1-0.3,0.1-0.7,0.1-1
	c0-1.8-0.7-3.5-2-4.8c-1.3-1.3-3-2-4.8-2c-1.6,0-3.2,0.6-4.4,1.6C10,0.6,8.4,0,6.8,0C5,0,3.3,0.7,2,2S0,5,0,6.8
	c0,0.8,0.2,1.6,0.4,2.4L3.4,9.1L3.4,9.1z"/>
</svg>
