<svg width="27" height="27" viewBox="0 0 27 27" fill="none" xmlns="http://www.w3.org/2000/svg">
<path d="M18 4.5H20.25C20.8467 4.5 21.419 4.73705 21.841 5.15901C22.2629 5.58097 22.5 6.15326 22.5 6.75V22.5C22.5 23.0967 22.2629 23.669 21.841 24.091C21.419 24.5129 20.8467 24.75 20.25 24.75H6.75C6.15326 24.75 5.58097 24.5129 5.15901 24.091C4.73705 23.669 4.5 23.0967 4.5 22.5V6.75C4.5 6.15326 4.73705 5.58097 5.15901 5.15901C5.58097 4.73705 6.15326 4.5 6.75 4.5H9" stroke="black" stroke-linecap="round" stroke-linejoin="round"/>
<path d="M16.875 2.25H10.125C9.50368 2.25 9 2.75368 9 3.375V5.625C9 6.24632 9.50368 6.75 10.125 6.75H16.875C17.4963 6.75 18 6.24632 18 5.625V3.375C18 2.75368 17.4963 2.25 16.875 2.25Z" stroke="black" stroke-linecap="round" stroke-linejoin="round"/>
</svg>
