<svg width="26" height="25" viewBox="0 0 26 25" fill="none" xmlns="http://www.w3.org/2000/svg">
<path d="M10.0052 16.578C10.6117 16.6701 11.2121 16.6144 11.6971 16.4169C12.1752 16.2222 12.6179 15.8502 12.7107 15.2784C12.8023 14.7144 12.5149 14.2207 12.1319 13.8789C11.7441 13.5328 11.2034 13.2839 10.6085 13.1758L10.601 13.1744L10.5935 13.1733C9.9872 13.082 9.38692 13.138 8.90206 13.3357C8.42423 13.5305 7.98158 13.9024 7.88864 14.4739M10.0052 16.578L10.0802 16.0838L10.0058 16.5781C10.0056 16.5781 10.0054 16.5781 10.0052 16.578ZM10.0052 16.578C9.38756 16.4849 8.83987 16.2337 8.45194 15.8794C8.06822 15.5289 7.79763 15.0289 7.88864 14.4739M7.88864 14.4739C7.88862 14.474 7.8886 14.4741 7.88858 14.4743L8.3821 14.5544L7.88875 14.4732C7.88871 14.4734 7.88867 14.4737 7.88864 14.4739ZM9.58725 19.5122C8.97143 20.556 7.57961 21.1429 6.10761 20.8913L9.58725 19.5122ZM9.58725 19.5122C9.72348 19.4821 9.85461 19.4479 9.97997 19.4095L9.83359 18.9314L9.3514 18.7992C9.32613 18.8913 9.29347 18.9813 9.25389 19.0686C8.45066 19.2104 7.46062 19.2092 6.43608 19.0375L9.58725 19.5122ZM14.6497 10.5941L14.0538 13.9849L14.0107 14.23L14.029 14.2497L13.9997 14.4117L13.6985 16.0764L13.6979 16.0796C12.951 20.3644 9.61938 23.5906 5.511 24.4714C1.94864 22.3143 -0.0930385 18.1732 0.653035 13.8607C0.653055 13.8605 0.653075 13.8604 0.653095 13.8603L1.60777 8.3661C3.4012 9.19504 5.60415 9.85193 7.99402 10.2675L7.99402 10.2675L7.99914 10.2683C9.33103 10.4857 10.6154 10.6229 11.8489 10.6504L11.8555 10.6698L12.2049 10.6784C13.0659 10.6995 13.881 10.6713 14.6497 10.5941ZM6.02303 21.3841L6.02336 21.3841C7.92806 21.7097 9.84627 20.7754 10.3158 19.0637L10.5562 18.1873L9.68721 18.4533C8.90401 18.6931 7.75245 18.7512 6.51874 18.5444L6.51617 18.544C5.25981 18.3401 4.21391 17.9076 3.55225 17.4259L2.82863 16.8991L2.75946 17.7915C2.62348 19.5458 4.12186 21.0577 6.02303 21.3841ZM4.54988 12.1558L4.54991 12.1557L4.53727 12.1538C3.93092 12.0624 3.33071 12.1185 2.84595 12.3159C2.36828 12.5104 1.92524 12.882 1.83233 13.4533C1.74215 14.0079 2.0122 14.508 2.39584 14.8589C2.78367 15.2138 3.33133 15.4654 3.94949 15.5586C4.55564 15.6499 5.15579 15.5942 5.64074 15.397C6.11884 15.2025 6.56174 14.8311 6.65554 14.2597L6.65569 14.2589C6.74621 13.7012 6.47306 13.2075 6.08891 12.8611C5.70215 12.5122 5.15872 12.2635 4.54988 12.1558Z" stroke="black"/>
<path d="M12.0296 10.4043L11.8546 10.4004C10.6355 10.3733 9.36294 10.2376 8.03941 10.0216L8.03685 10.0212C5.52948 9.5852 3.23695 8.88285 1.41773 7.99945L0.406756 13.8177L12.0296 10.4043ZM12.0296 10.4043L12.0363 10.4242L12.2111 10.4285C13.1873 10.4524 14.1016 10.4122 14.9537 10.3089L14.3 14.0281L14.2785 14.1507L14.2973 14.1709L14.2457 14.4562L13.9445 16.1209L13.9442 16.1225C13.1728 20.5473 9.71296 23.8656 5.46648 24.7361C1.76712 22.5426 -0.363583 18.27 0.406726 13.8179L12.0296 10.4043ZM8.13539 14.5141C8.06227 14.9593 8.27629 15.3804 8.62054 15.6948C8.96695 16.0112 9.46695 16.2441 10.043 16.3309C10.6133 16.4174 11.1668 16.3629 11.6028 16.1854C12.0353 16.0092 12.3903 15.6922 12.4639 15.2384C12.537 14.7884 12.311 14.3738 11.9655 14.0654C11.6175 13.7549 11.1212 13.5231 10.5638 13.4218L10.5638 13.4217L10.5563 13.4205C9.98601 13.3346 9.43238 13.3895 8.99644 13.5672C8.56403 13.7435 8.20916 14.0603 8.13539 14.5141ZM8.13539 14.5141C8.13538 14.5141 8.13536 14.5142 8.13535 14.5143L8.38212 14.5544L8.13543 14.5138C8.13542 14.5139 8.1354 14.514 8.13539 14.5141ZM6.06532 21.1377L6.06549 21.1377C7.88116 21.448 9.64843 20.5516 10.0747 18.9975L10.1949 18.5593L9.7604 18.6924C8.93063 18.9464 7.73819 19.0023 6.47741 18.791L6.47613 18.7907C5.19038 18.5821 4.10531 18.1378 3.40511 17.628L3.0433 17.3646L3.00871 17.8108C2.88556 19.3996 4.25141 20.8263 6.06532 21.1377ZM4.50633 12.402L4.50634 12.4019L4.50002 12.401C3.92973 12.315 3.37615 12.3699 2.94024 12.5474C2.50789 12.7235 2.15282 13.0401 2.07909 13.4935C2.00673 13.9384 2.22047 14.3597 2.56459 14.6745C2.91081 14.9912 3.41054 15.2245 3.98674 15.3114C4.55693 15.3973 5.11048 15.3427 5.54656 15.1654C5.9792 14.9894 6.33436 14.6729 6.40885 14.2192L6.40892 14.2188C6.48145 13.772 6.26601 13.3574 5.92147 13.0467C5.57563 12.7348 5.07786 12.5031 4.50633 12.402Z" stroke="black" stroke-width="0.5"/>
<mask id="path-3-inside-1_393_978" fill="white">
<path d="M15.6947 7.92829C14.7986 8.02585 14.0065 7.68681 13.9297 7.17947C13.8528 6.67091 14.5692 6.13918 15.4381 6.04405C16.3343 5.94648 17.1264 6.28431 17.2032 6.79287C17.2813 7.29899 16.5909 7.80755 15.6947 7.92829ZM17.5366 6.74409C17.4338 6.04405 16.5128 5.60866 15.4134 5.72818C14.3127 5.87331 13.5194 6.50139 13.6223 7.20386C13.7251 7.9039 14.6449 8.33928 15.7455 8.21977C16.8462 8.09781 17.6135 7.44412 17.5366 6.74409Z"/>
</mask>
<path d="M15.6947 7.92829L15.803 8.92241L15.8156 8.92104L15.8282 8.91934L15.6947 7.92829ZM13.9297 7.17947L12.9409 7.32889L12.9409 7.32924L13.9297 7.17947ZM15.4381 6.04405L15.3299 5.04992L15.3293 5.04999L15.4381 6.04405ZM17.2032 6.79287L16.2144 6.94228L16.2149 6.94535L17.2032 6.79287ZM17.5366 6.74409L18.5307 6.63496L18.5287 6.61678L18.526 6.59868L17.5366 6.74409ZM15.4134 5.72818L15.3053 4.73404L15.2939 4.73527L15.2826 4.73676L15.4134 5.72818ZM13.6223 7.20386L12.6328 7.34877L12.6329 7.34927L13.6223 7.20386ZM15.7455 8.21977L15.8535 9.21393L15.8557 9.21368L15.7455 8.21977ZM15.5865 6.93416C15.2822 6.96729 15.0358 6.91984 14.8964 6.86053C14.8281 6.83146 14.814 6.81191 14.8278 6.82613C14.8454 6.84417 14.9005 6.91171 14.9184 7.0297L12.9409 7.32924C13.0545 8.07927 13.6496 8.50355 14.1135 8.70091C14.6133 8.91357 15.2111 8.98685 15.803 8.92241L15.5865 6.93416ZM14.9184 7.03006C14.9393 7.16827 14.8972 7.26509 14.8798 7.29561C14.8658 7.3202 14.8703 7.30087 14.9289 7.25699C15.0482 7.16761 15.2702 7.06841 15.547 7.03811L15.3293 5.04999C14.7372 5.11482 14.1665 5.32905 13.7296 5.65646C13.3335 5.95327 12.8209 6.53474 12.9409 7.32889L14.9184 7.03006ZM15.5464 7.03818C15.8512 7.00499 16.0976 7.05236 16.2368 7.11151C16.305 7.14049 16.3189 7.15992 16.3048 7.14549C16.287 7.12716 16.2322 7.05966 16.2144 6.94228L18.192 6.64345C18.0786 5.89284 17.4837 5.46828 17.019 5.27081C16.5189 5.0583 15.9212 4.98555 15.3299 5.04992L15.5464 7.03818ZM16.2149 6.94535C16.1946 6.81343 16.2329 6.71575 16.2544 6.67748C16.2715 6.64694 16.2718 6.66214 16.2155 6.70419C16.1006 6.79012 15.8723 6.89533 15.5612 6.93724L15.8282 8.91934C16.4133 8.84051 16.9783 8.63107 17.4131 8.306C17.8148 8.00565 18.3131 7.42865 18.1915 6.64038L16.2149 6.94535ZM18.526 6.59868C18.4111 5.81645 17.8532 5.29986 17.279 5.02613C16.7009 4.75051 16.0032 4.65817 15.3053 4.73404L15.5214 6.72232C15.9229 6.67868 16.2355 6.74427 16.4184 6.83147C16.6053 6.92056 16.5593 6.97168 16.5473 6.88949L18.526 6.59868ZM15.2826 4.73676C14.5913 4.82792 13.9319 5.07711 13.4352 5.48148C12.9382 5.88603 12.5142 6.53878 12.6328 7.34877L14.6117 7.05896C14.6274 7.16647 14.5486 7.15395 14.6978 7.03255C14.8471 6.91099 15.1347 6.77358 15.5441 6.7196L15.2826 4.73676ZM12.6329 7.34927C12.7478 8.13101 13.3048 8.64777 13.8792 8.92175C14.4574 9.1975 15.1552 9.28975 15.8535 9.21392L15.6376 7.22561C15.2352 7.2693 14.9228 7.20361 14.7402 7.11654C14.5539 7.0277 14.5996 6.97675 14.6116 7.05846L12.6329 7.34927ZM15.8557 9.21368C16.5649 9.1351 17.2264 8.88014 17.7224 8.46731C18.2166 8.05601 18.6162 7.41366 18.5307 6.63496L16.5426 6.85321C16.534 6.77455 16.5884 6.80906 16.4429 6.9301C16.2994 7.04961 16.0269 7.18247 15.6354 7.22585L15.8557 9.21368Z" fill="black" mask="url(#path-3-inside-1_393_978)"/>
<mask id="path-5-inside-2_393_978" fill="white">
<path d="M15.6947 7.92829C14.7986 8.02585 14.0065 7.68681 13.9297 7.17947C13.8528 6.67091 14.5692 6.13918 15.4381 6.04405C16.3343 5.94648 17.1264 6.28431 17.2032 6.79287C17.2813 7.29899 16.5909 7.80755 15.6947 7.92829ZM17.5366 6.74409C17.4338 6.04405 16.5128 5.60866 15.4134 5.72818C14.3127 5.87331 13.5194 6.50139 13.6223 7.20386C13.7251 7.9039 14.6449 8.33928 15.7455 8.21977C16.8462 8.09781 17.6135 7.44412 17.5366 6.74409Z"/>
</mask>
<path d="M15.6947 7.92829L15.803 8.92241L15.8156 8.92104L15.8282 8.91934L15.6947 7.92829ZM13.9297 7.17947L12.9409 7.32889L12.9409 7.32924L13.9297 7.17947ZM15.4381 6.04405L15.3299 5.04992L15.3293 5.04999L15.4381 6.04405ZM17.2032 6.79287L16.2144 6.94228L16.2149 6.94535L17.2032 6.79287ZM17.5366 6.74409L18.5307 6.63496L18.5287 6.61678L18.526 6.59868L17.5366 6.74409ZM15.4134 5.72818L15.3053 4.73404L15.2939 4.73527L15.2826 4.73676L15.4134 5.72818ZM13.6223 7.20386L12.6328 7.34877L12.6329 7.34927L13.6223 7.20386ZM15.7455 8.21977L15.8535 9.21393L15.8557 9.21368L15.7455 8.21977ZM15.5865 6.93416C15.2822 6.96729 15.0358 6.91984 14.8964 6.86053C14.8281 6.83146 14.814 6.81191 14.8278 6.82613C14.8454 6.84417 14.9005 6.91171 14.9184 7.0297L12.9409 7.32924C13.0545 8.07927 13.6496 8.50355 14.1135 8.70091C14.6133 8.91357 15.2111 8.98685 15.803 8.92241L15.5865 6.93416ZM14.9184 7.03006C14.9393 7.16827 14.8972 7.26509 14.8798 7.29561C14.8658 7.3202 14.8703 7.30087 14.9289 7.25699C15.0482 7.16761 15.2702 7.06841 15.547 7.03811L15.3293 5.04999C14.7372 5.11482 14.1665 5.32905 13.7296 5.65646C13.3335 5.95327 12.8209 6.53474 12.9409 7.32889L14.9184 7.03006ZM15.5464 7.03818C15.8512 7.00499 16.0976 7.05236 16.2368 7.11151C16.305 7.14049 16.3189 7.15992 16.3048 7.14549C16.287 7.12716 16.2322 7.05966 16.2144 6.94228L18.192 6.64345C18.0786 5.89284 17.4837 5.46828 17.019 5.27081C16.5189 5.0583 15.9212 4.98555 15.3299 5.04992L15.5464 7.03818ZM16.2149 6.94535C16.1946 6.81343 16.2329 6.71575 16.2544 6.67748C16.2715 6.64694 16.2718 6.66214 16.2155 6.70419C16.1006 6.79012 15.8723 6.89533 15.5612 6.93724L15.8282 8.91934C16.4133 8.84051 16.9783 8.63107 17.4131 8.306C17.8148 8.00565 18.3131 7.42865 18.1915 6.64038L16.2149 6.94535ZM18.526 6.59868C18.4111 5.81645 17.8532 5.29986 17.279 5.02613C16.7009 4.75051 16.0032 4.65817 15.3053 4.73404L15.5214 6.72232C15.9229 6.67868 16.2355 6.74427 16.4184 6.83147C16.6053 6.92056 16.5593 6.97168 16.5473 6.88949L18.526 6.59868ZM15.2826 4.73676C14.5913 4.82792 13.9319 5.07711 13.4352 5.48148C12.9382 5.88603 12.5142 6.53878 12.6328 7.34877L14.6117 7.05896C14.6274 7.16647 14.5486 7.15395 14.6978 7.03255C14.8471 6.91099 15.1347 6.77358 15.5441 6.7196L15.2826 4.73676ZM12.6329 7.34927C12.7478 8.13101 13.3048 8.64777 13.8792 8.92175C14.4574 9.1975 15.1552 9.28975 15.8535 9.21392L15.6376 7.22561C15.2352 7.2693 14.9228 7.20361 14.7402 7.11654C14.5539 7.0277 14.5996 6.97675 14.6116 7.05846L12.6329 7.34927ZM15.8557 9.21368C16.5649 9.1351 17.2264 8.88014 17.7224 8.46731C18.2166 8.05601 18.6162 7.41366 18.5307 6.63496L16.5426 6.85321C16.534 6.77455 16.5884 6.80906 16.4429 6.9301C16.2994 7.04961 16.0269 7.18247 15.6354 7.22585L15.8557 9.21368Z" fill="black" mask="url(#path-5-inside-2_393_978)"/>
<mask id="path-7-inside-3_393_978" fill="white">
<path d="M19.374 12.3458C18.2721 12.4654 17.2495 12.752 16.4897 13.1813C16.6198 12.0824 17.7478 11.1507 19.1906 10.9836C20.6334 10.8153 21.9708 11.4604 22.3898 12.4885C21.5506 12.2739 20.502 12.2263 19.374 12.3458ZM19.1646 10.697C17.433 10.8885 16.1228 12.1068 16.1488 13.4691V13.7325L16.3856 13.5886C17.1194 13.1349 18.2213 12.7995 19.4013 12.6568C20.5801 12.5129 21.7353 12.6093 22.5745 12.8727L22.8645 12.969L22.8112 12.7056C22.4964 11.3665 20.8689 10.5055 19.1646 10.697Z"/>
</mask>
<path d="M19.374 12.3458L19.2687 11.3514L19.2662 11.3517L19.374 12.3458ZM16.4897 13.1813L15.4966 13.0636L15.2647 15.0219L16.9816 14.0519L16.4897 13.1813ZM19.1906 10.9836L19.3056 11.9769L19.3065 11.9768L19.1906 10.9836ZM22.3898 12.4885L22.142 13.4573L24.0648 13.9492L23.3158 12.1112L22.3898 12.4885ZM19.1646 10.697L19.2745 11.6909L19.2762 11.6907L19.1646 10.697ZM16.1488 13.4691H17.1488V13.4595L17.1486 13.45L16.1488 13.4691ZM16.1488 13.7325H15.1488V15.5106L16.6682 14.587L16.1488 13.7325ZM16.3856 13.5886L16.905 14.4431L16.9114 14.4392L16.3856 13.5886ZM19.4013 12.6568L19.5214 13.6496L19.5225 13.6495L19.4013 12.6568ZM22.5745 12.8727L22.8897 11.9237L22.8819 11.9211L22.874 11.9186L22.5745 12.8727ZM22.8645 12.969L22.5493 13.9181L24.1868 14.462L23.8446 12.7707L22.8645 12.969ZM22.8112 12.7056L23.7914 12.5073L23.7882 12.492L23.7847 12.4767L22.8112 12.7056ZM19.2662 11.3517C18.0751 11.4809 16.9104 11.795 15.9978 12.3106L16.9816 14.0519C17.5886 13.7089 18.4691 13.4499 19.4819 13.34L19.2662 11.3517ZM17.4827 13.2989C17.5399 12.8163 18.1459 12.1112 19.3056 11.9769L19.0756 9.99022C17.3497 10.1901 15.6998 11.3486 15.4966 13.0636L17.4827 13.2989ZM19.3065 11.9768C20.4638 11.8419 21.2684 12.3867 21.4637 12.8659L23.3158 12.1112C22.6732 10.5342 20.803 9.78871 19.0747 9.99032L19.3065 11.9768ZM22.6376 11.5197C21.6519 11.2676 20.4779 11.2233 19.2687 11.3514L19.4794 13.3403C20.5261 13.2294 21.4493 13.2802 22.142 13.4573L22.6376 11.5197ZM19.0547 9.70304C17.0079 9.92937 15.1097 11.4308 15.149 13.4882L17.1486 13.45C17.1359 12.7829 17.858 11.8475 19.2745 11.6909L19.0547 9.70304ZM15.1488 13.4691V13.7325H17.1488V13.4691H15.1488ZM16.6682 14.587L16.905 14.4431L15.8661 12.7341L15.6294 12.878L16.6682 14.587ZM16.9114 14.4392C17.4811 14.087 18.4286 13.7817 19.5214 13.6496L19.2813 11.6641C18.014 11.8173 16.7576 12.1829 15.8597 12.738L16.9114 14.4392ZM19.5225 13.6495C20.5873 13.5195 21.5957 13.6136 22.275 13.8268L22.874 11.9186C21.8749 11.605 20.5729 11.5064 19.2801 11.6642L19.5225 13.6495ZM22.2592 13.8217L22.5493 13.9181L23.1797 12.02L22.8897 11.9237L22.2592 13.8217ZM23.8446 12.7707L23.7914 12.5073L21.8311 12.9039L21.8844 13.1674L23.8446 12.7707ZM23.7847 12.4767C23.5472 11.4668 22.8328 10.7092 21.9869 10.2489C21.1387 9.78748 20.0986 9.58576 19.0529 9.70324L19.2762 11.6907C19.9349 11.6167 20.5606 11.7498 21.031 12.0057C21.5036 12.2629 21.7604 12.6054 21.8378 12.9345L23.7847 12.4767Z" fill="black" mask="url(#path-7-inside-3_393_978)"/>
<mask id="path-9-inside-4_393_978" fill="white">
<path d="M19.374 12.3458C18.2721 12.4654 17.2495 12.752 16.4897 13.1813C16.6198 12.0824 17.7478 11.1507 19.1906 10.9836C20.6334 10.8153 21.9708 11.4604 22.3898 12.4885C21.5506 12.2739 20.502 12.2263 19.374 12.3458ZM19.1646 10.697C17.433 10.8885 16.1228 12.1068 16.1488 13.4691V13.7325L16.3856 13.5886C17.1194 13.1349 18.2213 12.7995 19.4013 12.6568C20.5801 12.5129 21.7353 12.6093 22.5745 12.8727L22.8645 12.969L22.8112 12.7056C22.4964 11.3665 20.8689 10.5055 19.1646 10.697Z"/>
</mask>
<path d="M19.374 12.3458L19.2687 11.3514L19.2662 11.3517L19.374 12.3458ZM16.4897 13.1813L15.4966 13.0636L15.2647 15.0219L16.9816 14.0519L16.4897 13.1813ZM19.1906 10.9836L19.3056 11.9769L19.3065 11.9768L19.1906 10.9836ZM22.3898 12.4885L22.142 13.4573L24.0648 13.9492L23.3158 12.1112L22.3898 12.4885ZM19.1646 10.697L19.2745 11.6909L19.2762 11.6907L19.1646 10.697ZM16.1488 13.4691H17.1488V13.4595L17.1486 13.45L16.1488 13.4691ZM16.1488 13.7325H15.1488V15.5106L16.6682 14.587L16.1488 13.7325ZM16.3856 13.5886L16.905 14.4431L16.9114 14.4392L16.3856 13.5886ZM19.4013 12.6568L19.5214 13.6496L19.5225 13.6495L19.4013 12.6568ZM22.5745 12.8727L22.8897 11.9237L22.8819 11.9211L22.874 11.9186L22.5745 12.8727ZM22.8645 12.969L22.5493 13.9181L24.1868 14.462L23.8446 12.7707L22.8645 12.969ZM22.8112 12.7056L23.7914 12.5073L23.7882 12.492L23.7847 12.4767L22.8112 12.7056ZM19.2662 11.3517C18.0751 11.4809 16.9104 11.795 15.9978 12.3106L16.9816 14.0519C17.5886 13.7089 18.4691 13.4499 19.4819 13.34L19.2662 11.3517ZM17.4827 13.2989C17.5399 12.8163 18.1459 12.1112 19.3056 11.9769L19.0756 9.99022C17.3497 10.1901 15.6998 11.3486 15.4966 13.0636L17.4827 13.2989ZM19.3065 11.9768C20.4638 11.8419 21.2684 12.3867 21.4637 12.8659L23.3158 12.1112C22.6732 10.5342 20.803 9.78871 19.0747 9.99032L19.3065 11.9768ZM22.6376 11.5197C21.6519 11.2676 20.4779 11.2233 19.2687 11.3514L19.4794 13.3403C20.5261 13.2294 21.4493 13.2802 22.142 13.4573L22.6376 11.5197ZM19.0547 9.70304C17.0079 9.92937 15.1097 11.4308 15.149 13.4882L17.1486 13.45C17.1359 12.7829 17.858 11.8475 19.2745 11.6909L19.0547 9.70304ZM15.1488 13.4691V13.7325H17.1488V13.4691H15.1488ZM16.6682 14.587L16.905 14.4431L15.8661 12.7341L15.6294 12.878L16.6682 14.587ZM16.9114 14.4392C17.4811 14.087 18.4286 13.7817 19.5214 13.6496L19.2813 11.6641C18.014 11.8173 16.7576 12.1829 15.8597 12.738L16.9114 14.4392ZM19.5225 13.6495C20.5873 13.5195 21.5957 13.6136 22.275 13.8268L22.874 11.9186C21.8749 11.605 20.5729 11.5064 19.2801 11.6642L19.5225 13.6495ZM22.2592 13.8217L22.5493 13.9181L23.1797 12.02L22.8897 11.9237L22.2592 13.8217ZM23.8446 12.7707L23.7914 12.5073L21.8311 12.9039L21.8844 13.1674L23.8446 12.7707ZM23.7847 12.4767C23.5472 11.4668 22.8328 10.7092 21.9869 10.2489C21.1387 9.78748 20.0986 9.58576 19.0529 9.70324L19.2762 11.6907C19.9349 11.6167 20.5606 11.7498 21.031 12.0057C21.5036 12.2629 21.7604 12.6054 21.8378 12.9345L23.7847 12.4767Z" fill="black" mask="url(#path-9-inside-4_393_978)"/>
<mask id="path-11-inside-5_393_978" fill="white">
<path d="M21.8797 7.13929C20.9847 7.23563 20.1915 6.89781 20.1146 6.39047C20.0378 5.88191 20.7542 5.35018 21.6243 5.25505C22.5205 5.15748 23.3113 5.49531 23.3894 6.00387C23.4662 6.51121 22.7498 7.04294 21.8797 7.13929ZM21.5735 4.96357C20.4728 5.1087 19.6795 5.73678 19.7824 6.43925C19.8853 7.13929 20.8062 7.57468 21.9069 7.45516C23.0064 7.30881 23.8009 6.68073 23.698 5.97948C23.6199 5.27822 22.673 4.84406 21.5735 4.96357Z"/>
</mask>
<path d="M21.8797 7.13929L21.9867 8.13355L21.9897 8.13321L21.8797 7.13929ZM20.1146 6.39047L19.1258 6.53989L19.1259 6.54024L20.1146 6.39047ZM21.6243 5.25505L21.5161 4.26092L21.5157 4.26097L21.6243 5.25505ZM23.3894 6.00387L24.3781 5.8541L24.3778 5.8521L23.3894 6.00387ZM21.5735 4.96357L21.4654 3.96943L21.4541 3.97066L21.4428 3.97215L21.5735 4.96357ZM19.7824 6.43925L18.793 6.58416L18.793 6.58466L19.7824 6.43925ZM21.9069 7.45516L22.0149 8.44931L22.0269 8.44801L22.0389 8.44641L21.9069 7.45516ZM23.698 5.97948L22.7042 6.09015L22.7061 6.10743L22.7086 6.12463L23.698 5.97948ZM21.7726 6.14503C21.4684 6.17779 21.2214 6.13035 21.0813 6.07085C21.0126 6.04168 20.9984 6.02206 21.0123 6.03628C21.0299 6.05434 21.0854 6.12216 21.1033 6.2407L19.1259 6.54024C19.2396 7.2913 19.8363 7.71496 20.2994 7.91168C20.7989 8.12384 21.396 8.19713 21.9867 8.13354L21.7726 6.14503ZM21.1034 6.24106C21.1243 6.37928 21.0821 6.47613 21.0647 6.50671C21.0507 6.53134 21.0552 6.51203 21.1138 6.46815C21.2331 6.37878 21.4554 6.27947 21.733 6.24913L21.5157 4.26097C20.9231 4.32576 20.3521 4.53988 19.9149 4.8673C19.5185 5.16414 19.0058 5.74564 19.1258 6.53989L21.1034 6.24106ZM21.7326 6.24918C22.0374 6.21599 22.2834 6.26336 22.4224 6.32244C22.4905 6.35139 22.5045 6.37085 22.4907 6.3567C22.4731 6.33869 22.4188 6.27196 22.401 6.15564L24.3778 5.8521C24.2629 5.10369 23.67 4.67962 23.2049 4.48188C22.7049 4.2693 22.1074 4.19654 21.5161 4.26092L21.7326 6.24918ZM22.4007 6.15363C22.3796 6.01444 22.4221 5.91703 22.4396 5.88647C22.4536 5.86183 22.449 5.88122 22.3902 5.92527C22.2705 6.01495 22.0477 6.11458 21.7696 6.14536L21.9897 8.13321C22.5818 8.06765 23.1523 7.85325 23.5891 7.52613C23.9845 7.23001 24.4985 6.64871 24.3781 5.8541L22.4007 6.15363ZM21.4428 3.97215C20.7515 4.06331 20.0921 4.3125 19.5953 4.71688C19.0983 5.12142 18.6743 5.77417 18.793 6.58416L20.7719 6.29435C20.7876 6.40186 20.7088 6.38934 20.8579 6.26794C21.0073 6.14638 21.2949 6.00897 21.7042 5.95499L21.4428 3.97215ZM18.793 6.58466C18.908 7.36695 19.4659 7.88355 20.0403 8.15728C20.6186 8.43287 21.3165 8.52515 22.0149 8.44931L21.799 6.461C21.3967 6.50469 21.0837 6.43903 20.9007 6.3518C20.7137 6.2627 20.7597 6.21159 20.7718 6.29385L18.793 6.58466ZM22.0389 8.44641C22.7293 8.35451 23.3881 8.10497 23.8845 7.70109C24.3806 7.29744 24.8064 6.64501 24.6874 5.83432L22.7086 6.12463C22.6926 6.0152 22.7725 6.02743 22.6222 6.14972C22.4722 6.27179 22.184 6.40946 21.775 6.4639L22.0389 8.44641ZM24.6919 5.8688C24.6012 5.05457 24.0179 4.5296 23.4457 4.25944C22.8653 3.98546 22.1626 3.89364 21.4654 3.96943L21.6816 5.95772C22.0839 5.91399 22.4043 5.9795 22.5919 6.06803C22.7875 6.16038 22.7168 6.20313 22.7042 6.09015L24.6919 5.8688Z" fill="black" mask="url(#path-11-inside-5_393_978)"/>
<mask id="path-13-inside-6_393_978" fill="white">
<path d="M21.8797 7.13929C20.9847 7.23563 20.1915 6.89781 20.1146 6.39047C20.0378 5.88191 20.7542 5.35018 21.6243 5.25505C22.5205 5.15748 23.3113 5.49531 23.3894 6.00387C23.4662 6.51121 22.7498 7.04294 21.8797 7.13929ZM21.5735 4.96357C20.4728 5.1087 19.6795 5.73678 19.7824 6.43925C19.8853 7.13929 20.8062 7.57468 21.9069 7.45516C23.0064 7.30881 23.8009 6.68073 23.698 5.97948C23.6199 5.27822 22.673 4.84406 21.5735 4.96357Z"/>
</mask>
<path d="M21.8797 7.13929L21.9867 8.13355L21.9897 8.13321L21.8797 7.13929ZM20.1146 6.39047L19.1258 6.53989L19.1259 6.54024L20.1146 6.39047ZM21.6243 5.25505L21.5161 4.26092L21.5157 4.26097L21.6243 5.25505ZM23.3894 6.00387L24.3781 5.8541L24.3778 5.8521L23.3894 6.00387ZM21.5735 4.96357L21.4654 3.96943L21.4541 3.97066L21.4428 3.97215L21.5735 4.96357ZM19.7824 6.43925L18.793 6.58416L18.793 6.58466L19.7824 6.43925ZM21.9069 7.45516L22.0149 8.44931L22.0269 8.44801L22.0389 8.44641L21.9069 7.45516ZM23.698 5.97948L22.7042 6.09015L22.7061 6.10743L22.7086 6.12463L23.698 5.97948ZM21.7726 6.14503C21.4684 6.17779 21.2214 6.13035 21.0813 6.07085C21.0126 6.04168 20.9984 6.02206 21.0123 6.03628C21.0299 6.05434 21.0854 6.12216 21.1033 6.2407L19.1259 6.54024C19.2396 7.2913 19.8363 7.71496 20.2994 7.91168C20.7989 8.12384 21.396 8.19713 21.9867 8.13354L21.7726 6.14503ZM21.1034 6.24106C21.1243 6.37928 21.0821 6.47613 21.0647 6.50671C21.0507 6.53134 21.0552 6.51203 21.1138 6.46815C21.2331 6.37878 21.4554 6.27947 21.733 6.24913L21.5157 4.26097C20.9231 4.32576 20.3521 4.53988 19.9149 4.8673C19.5185 5.16414 19.0058 5.74564 19.1258 6.53989L21.1034 6.24106ZM21.7326 6.24918C22.0374 6.21599 22.2834 6.26336 22.4224 6.32244C22.4905 6.35139 22.5045 6.37085 22.4907 6.3567C22.4731 6.33869 22.4188 6.27196 22.401 6.15564L24.3778 5.8521C24.2629 5.10369 23.67 4.67962 23.2049 4.48188C22.7049 4.2693 22.1074 4.19654 21.5161 4.26092L21.7326 6.24918ZM22.4007 6.15363C22.3796 6.01444 22.4221 5.91703 22.4396 5.88647C22.4536 5.86183 22.449 5.88122 22.3902 5.92527C22.2705 6.01495 22.0477 6.11458 21.7696 6.14536L21.9897 8.13321C22.5818 8.06765 23.1523 7.85325 23.5891 7.52613C23.9845 7.23001 24.4985 6.64871 24.3781 5.8541L22.4007 6.15363ZM21.4428 3.97215C20.7515 4.06331 20.0921 4.3125 19.5953 4.71688C19.0983 5.12142 18.6743 5.77417 18.793 6.58416L20.7719 6.29435C20.7876 6.40186 20.7088 6.38934 20.8579 6.26794C21.0073 6.14638 21.2949 6.00897 21.7042 5.95499L21.4428 3.97215ZM18.793 6.58466C18.908 7.36695 19.4659 7.88355 20.0403 8.15728C20.6186 8.43287 21.3165 8.52515 22.0149 8.44931L21.799 6.461C21.3967 6.50469 21.0837 6.43903 20.9007 6.3518C20.7137 6.2627 20.7597 6.21159 20.7718 6.29385L18.793 6.58466ZM22.0389 8.44641C22.7293 8.35451 23.3881 8.10497 23.8845 7.70109C24.3806 7.29744 24.8064 6.64501 24.6874 5.83432L22.7086 6.12463C22.6926 6.0152 22.7725 6.02743 22.6222 6.14972C22.4722 6.27179 22.184 6.40946 21.775 6.4639L22.0389 8.44641ZM24.6919 5.8688C24.6012 5.05457 24.0179 4.5296 23.4457 4.25944C22.8653 3.98546 22.1626 3.89364 21.4654 3.96943L21.6816 5.95772C22.0839 5.91399 22.4043 5.9795 22.5919 6.06803C22.7875 6.16038 22.7168 6.20313 22.7042 6.09015L24.6919 5.8688Z" fill="black" mask="url(#path-13-inside-6_393_978)"/>
</svg>
