<?xml version="1.0" encoding="utf-8"?>
<!-- Generator: Adobe Illustrator 27.1.1, SVG Export Plug-In . SVG Version: 6.00 Build 0)  -->
<svg version="1.1" id="Calque_1" xmlns="http://www.w3.org/2000/svg" xmlns:xlink="http://www.w3.org/1999/xlink" x="0px" y="0px"
	 viewBox="0 0 20.976 20.499" style="enable-background:new 0 0 20.976 20.499;" xml:space="preserve">
<style type="text/css">
	.st0{fill:#1D1D1B;}
	.st1{fill:none;}
</style>
<g>
	<path class="st0" d="M16.09,14.158c-1.702-0.441-3.205-1.365-4.355-2.62l0.575-3.325c-0.752,0.11-1.57,0.155-2.454,0.133
		C9.68,7.817,9.569,7.288,9.503,6.738L8.884,1.849c1.68,0.287,3.647,0.309,5.658,0.045c2.012-0.264,3.913-0.749,5.46-1.454
		l0.619,4.889C21.086,8.895,19.252,12.44,16.09,14.158z M9.856,12.462c-0.088,0.551-0.862,0.859-1.724,0.726
		c-0.862-0.132-1.459-0.704-1.37-1.254c0.088-0.551,0.862-0.859,1.724-0.727C9.325,11.362,9.944,11.911,9.856,12.462 M4.927,17.13
		c-1.393-0.243-2.388-1.343-2.299-2.51c0.596,0.441,1.503,0.815,2.564,0.99c1.039,0.177,2.034,0.133,2.741-0.087
		C7.624,16.668,6.32,17.372,4.927,17.13 M1.876,11.097c0.088-0.55,0.862-0.858,1.724-0.726c0.862,0.155,1.459,0.704,1.371,1.255
		c-0.089,0.551-0.863,0.858-1.725,0.726C2.384,12.22,1.788,11.647,1.876,11.097 M20.909,5.284L20.246,0l-0.177,0.088
		c-1.569,0.726-3.493,1.233-5.57,1.497c-2.078,0.264-4.067,0.242-5.748-0.066L8.574,1.475L9.237,6.76
		c0.066,0.55,0.178,1.057,0.331,1.563c-0.972-0.022-1.989-0.132-3.05-0.308C4.396,7.64,2.473,7.024,0.991,6.253l-0.862,5.042
		c-0.641,3.765,1.15,7.376,4.245,9.204c3.537-0.705,6.432-3.501,7.074-7.244l0.243-1.365c1.193,1.255,2.718,2.136,4.399,2.554
		l0.045,0.022l0.044-0.022c1.614-0.858,2.896-2.157,3.758-3.786C20.799,9.005,21.13,7.134,20.909,5.284z"/>
	<path class="st1" d="M16.09,14.158c-1.702-0.441-3.205-1.365-4.355-2.62l0.575-3.325c-0.752,0.11-1.57,0.155-2.454,0.133
		C9.68,7.817,9.569,7.288,9.503,6.738L8.884,1.849c1.68,0.287,3.647,0.309,5.658,0.045c2.012-0.264,3.913-0.749,5.46-1.454
		l0.619,4.889C21.086,8.895,19.252,12.44,16.09,14.158z M9.856,12.462c-0.088,0.551-0.862,0.859-1.724,0.726
		c-0.862-0.132-1.459-0.704-1.37-1.254c0.088-0.551,0.862-0.859,1.724-0.727C9.325,11.362,9.944,11.911,9.856,12.462z M4.927,17.13
		c-1.393-0.243-2.388-1.343-2.299-2.51c0.596,0.441,1.503,0.815,2.564,0.99c1.039,0.177,2.034,0.133,2.741-0.087
		C7.624,16.668,6.32,17.372,4.927,17.13z M1.876,11.097c0.088-0.55,0.862-0.858,1.724-0.726c0.862,0.155,1.459,0.704,1.371,1.255
		c-0.089,0.551-0.863,0.858-1.725,0.726C2.384,12.22,1.788,11.647,1.876,11.097z M20.909,5.284L20.246,0l-0.177,0.088
		c-1.569,0.726-3.493,1.233-5.57,1.497c-2.078,0.264-4.067,0.242-5.748-0.066L8.574,1.475L9.237,6.76
		c0.066,0.55,0.178,1.057,0.331,1.563c-0.972-0.022-1.989-0.132-3.05-0.308C4.396,7.64,2.473,7.024,0.991,6.253l-0.862,5.042
		c-0.641,3.765,1.15,7.376,4.245,9.204c3.537-0.705,6.432-3.501,7.074-7.244l0.243-1.365c1.193,1.255,2.718,2.136,4.399,2.554
		l0.045,0.022l0.044-0.022c1.614-0.858,2.896-2.157,3.758-3.786C20.799,9.005,21.13,7.134,20.909,5.284z"/>
	<path class="st0" d="M12.661,6.501c-0.723,0.08-1.362-0.198-1.424-0.614c-0.062-0.417,0.516-0.853,1.217-0.931
		c0.723-0.08,1.362,0.197,1.424,0.614C13.941,5.985,13.384,6.402,12.661,6.501 M14.147,5.53c-0.083-0.574-0.826-0.931-1.713-0.833
		c-0.888,0.119-1.528,0.634-1.445,1.21c0.083,0.574,0.825,0.931,1.713,0.833C13.59,6.64,14.209,6.104,14.147,5.53"/>
	<path class="st1" d="M12.661,6.501c-0.723,0.08-1.362-0.198-1.424-0.614c-0.062-0.417,0.516-0.853,1.217-0.931
		c0.723-0.08,1.362,0.197,1.424,0.614C13.941,5.985,13.384,6.402,12.661,6.501z M14.147,5.53c-0.083-0.574-0.826-0.931-1.713-0.833
		c-0.888,0.119-1.528,0.634-1.445,1.21c0.083,0.574,0.825,0.931,1.713,0.833C13.59,6.64,14.209,6.104,14.147,5.53z"/>
	<path class="st0" d="M15.63,10.123c-0.889,0.098-1.714,0.333-2.327,0.685c0.105-0.901,1.015-1.665,2.179-1.802
		c1.164-0.138,2.243,0.391,2.581,1.234C17.386,10.064,16.54,10.025,15.63,10.123z M15.461,8.771
		c-1.397,0.157-2.454,1.156-2.433,2.273v0.216l0.191-0.118c0.592-0.372,1.481-0.647,2.433-0.764c0.951-0.118,1.883-0.039,2.56,0.177
		l0.234,0.079l-0.043-0.216C18.149,9.32,16.836,8.614,15.461,8.771"/>
	<path class="st1" d="M15.63,10.123c-0.889,0.098-1.714,0.333-2.327,0.685c0.105-0.901,1.015-1.665,2.179-1.802
		c1.164-0.138,2.243,0.391,2.581,1.234C17.386,10.064,16.54,10.025,15.63,10.123z M15.461,8.771
		c-1.397,0.157-2.454,1.156-2.433,2.273v0.216l0.191-0.118c0.592-0.372,1.481-0.647,2.433-0.764c0.951-0.118,1.883-0.039,2.56,0.177
		l0.234,0.079l-0.043-0.216C18.149,9.32,16.836,8.614,15.461,8.771z"/>
	<path class="st0" d="M17.652,5.854C16.93,5.933,16.29,5.656,16.228,5.24c-0.062-0.417,0.516-0.853,1.218-0.931
		c0.723-0.08,1.361,0.197,1.424,0.614C18.932,5.339,18.354,5.775,17.652,5.854 M17.405,4.07c-0.888,0.119-1.528,0.634-1.445,1.21
		c0.083,0.574,0.826,0.931,1.714,0.833c0.887-0.12,1.528-0.635,1.445-1.21C19.056,4.328,18.292,3.972,17.405,4.07"/>
	<path class="st1" d="M17.652,5.854C16.93,5.933,16.29,5.656,16.228,5.24c-0.062-0.417,0.516-0.853,1.218-0.931
		c0.723-0.08,1.361,0.197,1.424,0.614C18.932,5.339,18.354,5.775,17.652,5.854z M17.405,4.07c-0.888,0.119-1.528,0.634-1.445,1.21
		c0.083,0.574,0.826,0.931,1.714,0.833c0.887-0.12,1.528-0.635,1.445-1.21C19.056,4.328,18.292,3.972,17.405,4.07z"/>
</g>
</svg>
