<svg width="23" height="23" viewBox="0 0 23 23" fill="none" xmlns="http://www.w3.org/2000/svg">
<path d="M5.69975 5.75084V6.25084H6.19975H16.8014H17.3014V5.75084V3.32525C17.3014 2.25721 16.4337 1.38782 15.3635 1.38782H7.63648C6.56853 1.38782 5.69975 2.25721 5.69975 3.32525V5.75084ZM11.3621 13.7178L11.3621 13.7162C11.3619 13.6394 11.4224 13.578 11.5006 13.578C11.5762 13.578 11.639 13.6395 11.639 13.7178V15.6381C11.639 15.7158 11.5756 15.7778 11.5006 15.7778C11.4249 15.7778 11.3621 15.7164 11.3621 15.6381L11.3621 13.7178ZM18.6865 6.24972H20.1251C21.437 6.25065 22.5 7.31328 22.5 8.6257V11.7658L14.1311 12.9127C13.9526 11.6176 12.8429 10.6185 11.4994 10.6185C10.156 10.6185 9.04628 11.6176 8.86775 12.9127L0.5 11.7658V8.6257C0.5 7.31321 1.563 6.25084 2.87458 6.25084H4.31243H4.81243V5.75084V2.87486C4.81243 1.56337 5.87556 0.5 7.18701 0.5H15.8119C17.1233 0.5 18.1865 1.56337 18.1865 2.87486V5.74972V6.24972H18.6865ZM14.1573 15.365L22.5 14.2215V20.1263C22.5 21.4375 21.4371 22.5 20.1254 22.5H2.87458C1.56287 22.5 0.5 21.4375 0.5 20.1263V14.2215L8.84379 15.365V15.5731C8.84379 17.0415 10.0327 18.2343 11.5006 18.2343C12.9684 18.2343 14.1573 17.0415 14.1573 15.5731V15.365Z" stroke="black"/>
</svg>
