<?xml version="1.0" encoding="utf-8"?>
<!-- Generator: Adobe Illustrator 27.1.1, SVG Export Plug-In . SVG Version: 6.00 Build 0)  -->
<svg version="1.1" id="Calque_1" xmlns="http://www.w3.org/2000/svg" xmlns:xlink="http://www.w3.org/1999/xlink" x="0px" y="0px"
	 viewBox="0 0 20.571 20.529" style="enable-background:new 0 0 20.571 20.529;" xml:space="preserve">
<style type="text/css">
	.st0{fill:#1D1D1B;}
</style>
<path class="st0" d="M5.545,5.133h9.482V2.968c0-0.707-0.576-1.283-1.286-1.283H6.83c-0.708,0-1.285,0.576-1.285,1.283V5.133z
	 M10.286,11.673c0.315,0,0.571,0.255,0.571,0.571v1.714c0,0.315-0.256,0.571-0.571,0.571c-0.316,0-0.571-0.256-0.571-0.571v-1.714
	C9.714,11.928,9.969,11.673,10.286,11.673 M20.571,7.699v3.192l-8.357,1.143v-0.181c0-1.065-0.864-1.929-1.929-1.929
	s-1.929,0.864-1.929,1.929v0.181L0,10.891V7.699c0-1.418,1.151-2.566,2.571-2.566h1.286V2.566C3.857,1.149,5.008,0,6.428,0h7.714
	c1.42,0,2.571,1.149,2.571,2.566v2.566H18C19.42,5.133,20.571,6.281,20.571,7.699 M20.571,12.182v5.782
	c0,1.417-1.151,2.565-2.571,2.565H2.571C1.151,20.529,0,19.381,0,17.964v-5.782l8.357,1.143V13.9c0,1.065,0.864,1.929,1.929,1.929
	s1.929-0.864,1.929-1.929v-0.575L20.571,12.182z"/>
</svg>
