<svg width="22" height="22" viewBox="0 0 22 22" fill="none" xmlns="http://www.w3.org/2000/svg">
<path d="M2.59551 11.5246V11.0246H2.09551H0.523908C0.519922 11.0246 0.515486 11.0234 0.511051 11.0205C0.506665 11.0175 0.503715 11.0138 0.501978 11.0096L0.501608 11.0087C0.498591 11.0014 0.499556 10.9915 0.507483 10.9836L0.507501 10.9836L10.983 0.507088C10.9925 0.497637 11.0075 0.497637 11.017 0.507088L21.4925 10.9836L21.4925 10.9836C21.5004 10.9915 21.5014 11.0014 21.4984 11.0087L21.498 11.0096C21.4941 11.0191 21.4853 11.0246 21.4761 11.0246H19.9045H19.4045V11.5246V21.4765C19.4045 21.4893 19.3938 21.5 19.381 21.5H14.1427C14.1373 21.5 14.131 21.4977 14.1262 21.4929L14.1243 21.491C14.122 21.4887 14.1192 21.4842 14.1192 21.4765V15.1902C14.1192 14.6251 13.6607 14.1667 13.0956 14.1667H8.90436C8.33927 14.1667 7.88084 14.6251 7.88084 15.1902V21.4765C7.88084 21.4818 7.87854 21.4881 7.87376 21.4929C7.86898 21.4977 7.86269 21.5 7.85733 21.5H2.61902C2.60621 21.5 2.59551 21.4893 2.59551 21.4765V11.5246Z" stroke="black"/>
</svg>
