<?xml version="1.0" encoding="utf-8"?>
<!-- Generator: Adobe Illustrator 26.0.0, SVG Export Plug-In . SVG Version: 6.00 Build 0)  -->
<svg version="1.1" id="Calque_1" xmlns="http://www.w3.org/2000/svg" xmlns:xlink="http://www.w3.org/1999/xlink" x="0px" y="0px"
	 viewBox="0 0 24.8 25.1" style="enable-background:new 0 0 24.8 25.1;" xml:space="preserve">
<style type="text/css">
	.st0{fill:none;stroke:#000000;stroke-width:0.25;stroke-miterlimit:10;}
</style>
<path class="st0" d="M9,22.6H4.1c-0.3,0-0.5-0.2-0.5-0.5v-9.3H2.1c-0.2,0-0.4-0.1-0.5-0.3c-0.1-0.2,0-0.4,0.1-0.5l9.8-9.8
	c0.2-0.2,0.5-0.2,0.7,0l9.8,9.8c0.1,0.1,0.2,0.4,0.1,0.5c-0.1,0.2-0.3,0.3-0.5,0.3h-1.5v9.3c0,0.3-0.2,0.5-0.5,0.5h-4.9
	c-0.1,0-0.3-0.1-0.3-0.1c-0.1-0.1-0.1-0.2-0.1-0.3v-5.9c0-0.3-0.2-0.5-0.5-0.5H10c-0.3,0-0.5,0.2-0.5,0.5v5.9c0,0.1-0.1,0.3-0.1,0.3
	C9.2,22.5,9.1,22.6,9,22.6z"/>
</svg>
