<?xml version="1.0" encoding="utf-8"?>
<!-- Generator: Adobe Illustrator 27.1.1, SVG Export Plug-In . SVG Version: 6.00 Build 0)  -->
<svg version="1.1" id="Calque_1" xmlns="http://www.w3.org/2000/svg" xmlns:xlink="http://www.w3.org/1999/xlink" x="0px" y="0px"
	 viewBox="0 0 19.923 20.569" style="enable-background:new 0 0 19.923 20.569;" xml:space="preserve">
<style type="text/css">
	.st0{fill:#1D1D1B;}
</style>
<path class="st0" d="M18.863,0.259c-0.238-0.238-0.65-0.216-0.845,0.065l-5.197,7.124l-2.339,3.119L8.749,8.25
	c0.758-0.714,0.888-1.905,0.26-2.772L5.218,0.259c-0.194-0.282-0.606-0.347-0.888-0.13c-0.282,0.194-0.346,0.606-0.13,0.888
	l3.118,4.289c0.087,0.13,0.065,0.303-0.064,0.412l-0.542,0.39C6.583,6.193,6.41,6.172,6.301,6.042l-3.118-4.31
	C2.988,1.45,2.576,1.385,2.294,1.602C2.014,1.797,1.948,2.208,2.164,2.49l3.119,4.289C5.37,6.907,5.348,7.081,5.218,7.189
	l-0.542,0.39c-0.13,0.087-0.303,0.065-0.412-0.064L1.147,3.226C0.952,2.944,0.541,2.88,0.259,3.096
	c-0.282,0.195-0.347,0.607-0.13,0.889l3.768,5.197c0.65,0.889,1.863,1.127,2.794,0.563l2.123,3.032L4.72,18.235
	c-0.498,0.65-0.347,1.581,0.303,2.057c0.65,0.476,1.581,0.324,2.057-0.346l3.4-4.83l3.401,4.83c0.476,0.671,1.386,0.822,2.057,0.346
	c0.65-0.476,0.801-1.407,0.303-2.057l-4.115-5.458l1.386-1.971l0.477,0.346c0.822,0.585,1.971,0.368,2.512-0.476l1.148-1.798
	c0.997-1.559,1.711-3.248,2.144-5.024C20.141,2.555,19.773,1.19,18.863,0.259z"/>
</svg>
