<svg width="25" height="26" viewBox="0 0 25 26" fill="none" xmlns="http://www.w3.org/2000/svg">
<path d="M23.0152 0.703163L23.0151 0.703082L16.4937 9.70792L16.4898 9.71325L16.4898 9.71322L13.5547 13.6557L13.1531 14.1951L12.7522 13.6552L10.5775 10.7265L10.3133 10.3707L10.6348 10.0657C11.4066 9.33332 11.5397 8.1073 10.8995 7.21674C10.8994 7.21664 10.8993 7.21654 10.8993 7.21644L6.14253 0.620096L6.13505 0.609726L6.13518 0.609634C6.05751 0.495906 5.87109 0.456963 5.74008 0.558507L5.72953 0.566687L5.71856 0.574292C5.60687 0.651687 5.56396 0.84546 5.66864 0.983124L5.6762 0.993068L5.67608 0.993159L9.5887 6.41452L9.59437 6.42237L9.59973 6.43043C9.85164 6.80961 9.77813 7.30982 9.42703 7.60865L9.41218 7.62129L9.39639 7.63274L8.71626 8.1257L8.70791 8.13175L8.69933 8.13745C8.32209 8.38783 7.82078 8.31531 7.52279 7.95731L7.51137 7.9436L7.50097 7.92911L3.58834 2.48121L3.58214 2.47258L3.58224 2.47252C3.50303 2.35713 3.31574 2.31922 3.18521 2.4204L3.17579 2.4277L3.16604 2.43454C3.05144 2.51493 3.01105 2.70993 3.11376 2.84502L3.12128 2.8549L3.12116 2.85499L7.03504 8.27635L7.03968 8.28278L7.04411 8.28935C7.2999 8.66843 7.22399 9.17361 6.86896 9.47071L6.85561 9.48189L6.84151 9.4921L6.16138 9.98507L6.15449 9.99007L6.14743 9.99482C5.76681 10.2514 5.26495 10.1748 4.96788 9.82067L4.95615 9.80668L4.94547 9.79188L1.03409 4.37052L1.02725 4.36103L1.02736 4.36095C0.948796 4.24651 0.762468 4.20786 0.630701 4.30952L0.62105 4.31697L0.611047 4.32394C0.496608 4.40365 0.455741 4.59805 0.559467 4.73383L0.563789 4.73949L0.567949 4.74527L5.29506 11.3127C5.29524 11.313 5.29542 11.3132 5.2956 11.3135C5.95891 12.2265 7.19144 12.4677 8.13602 11.8913L8.53815 11.6459L8.80703 12.0327L11.4711 15.8652L11.6764 16.1606L11.4615 16.4492L6.32419 23.3482L6.32115 23.3523L6.32113 23.3523C5.86926 23.9464 6.00354 24.8071 6.60019 25.2473C7.18552 25.679 8.03623 25.5466 8.47539 24.925C8.4756 24.9247 8.47581 24.9244 8.47601 24.9241L12.7413 18.8207L13.151 18.2343L13.5609 18.8206L17.8277 24.9244C17.8278 24.9247 17.828 24.9249 17.8282 24.9252C18.2645 25.5438 19.0897 25.6832 19.7063 25.2451C20.3004 24.8043 20.4334 23.9454 19.9823 23.3523L19.98 23.3492L19.98 23.3492L14.8163 16.4502L14.5997 16.1608L14.8066 15.8644L16.5458 13.373L16.8383 12.9541L17.2508 13.2555L17.8457 13.6902C17.8463 13.6906 17.8468 13.691 17.8474 13.6914C18.6474 14.2634 19.761 14.0485 20.2843 13.2272L23.0152 0.703163ZM23.0152 0.703163L23.0219 0.693466C23.0504 0.652182 23.0958 0.625626 23.1549 0.621505C23.2154 0.617285 23.2736 0.638424 23.3142 0.678477C24.3315 1.72862 24.7458 3.2715 24.3543 4.74327L24.3542 4.74323L24.3516 4.75415C23.8208 6.94687 22.9461 9.03084 21.725 10.9542L21.7248 10.9545L20.2847 13.2264L23.0152 0.703163Z" stroke="black"/>
</svg>
