<svg width="24" height="22" viewBox="0 0 24 22" fill="none" xmlns="http://www.w3.org/2000/svg">
<path d="M22.2419 10.414C21.9247 11.0573 21.5086 11.6485 20.9942 12.1678C20.9942 12.1678 20.9941 12.1679 20.9941 12.1679L11.7816 21.454L11.7816 21.454C11.7619 21.4739 11.7467 21.4822 11.7332 21.4873C11.7177 21.4931 11.6901 21.5 11.6417 21.5C11.5933 21.5 11.5657 21.4931 11.5502 21.4873C11.5368 21.4822 11.5215 21.4739 11.5018 21.454L2.29012 12.1677L2.2896 12.1671C2.18307 12.0601 2.08114 11.9466 1.98279 11.8281H3.86006C4.30374 11.8281 4.74751 11.5972 4.94932 11.1429C4.94945 11.1426 4.94958 11.1423 4.94971 11.142L5.50088 9.91019L7.57317 14.7234C7.74378 15.2035 8.20096 15.416 8.56254 15.4562L8.59005 15.4592H8.61773H8.67342C9.0659 15.4592 9.44832 15.2585 9.67634 14.8872L9.67636 14.8872L9.679 14.8828L11.5959 11.6883H12.7439C13.1829 11.6883 13.6289 11.4615 13.8311 11.0065L14.6036 9.3323L15.7361 12.5735L15.7361 12.5735L15.739 12.5814C15.8822 12.9702 16.2147 13.2476 16.6153 13.339C17.033 13.4409 17.464 13.278 17.7381 12.9615L20.0326 10.414H22.2419Z" stroke="black"/>
<path d="M3.28794 9.61123H0.81545C0.615175 8.91965 0.5 8.19728 0.5 7.48297C0.5 5.61751 1.20525 3.86508 2.48497 2.54335C3.76419 1.22213 5.45345 0.5 7.2451 0.5C8.88424 0.5 10.4436 1.09099 11.6653 2.19171L12 2.49326L12.3347 2.19171C13.5563 1.09101 15.1157 0.5 16.756 0.5C18.5465 0.5 20.2358 1.22208 21.515 2.54224L3.28794 9.61123ZM3.28794 9.61123L4.71705 6.46942C4.91906 6.00792 5.36481 5.76874 5.81724 5.76874C6.30784 5.76874 6.73268 6.07101 6.91953 6.50293L6.92212 6.5089L6.92208 6.50891L9.16614 11.8871L10.2818 10.0013L10.2905 9.98656L10.3002 9.97249C10.5052 9.67443 10.8681 9.40923 11.2989 9.40923H12.3747L14.0886 5.6038C14.28 5.16593 14.7437 4.86299 15.2425 4.90252C15.7538 4.91425 16.1684 5.27759 16.309 5.74035L17.7625 10.0249L19.0938 8.50862L19.1025 8.49874L19.1117 8.48933C19.3312 8.26436 19.623 8.10779 20.0007 8.10779H23.4729C23.4911 7.89921 23.5 7.69036 23.5 7.48187C23.5 5.61647 22.7948 3.8641 21.5152 2.54238L3.28794 9.61123Z" stroke="black"/>
</svg>
