<?xml version="1.0" encoding="utf-8"?>
<!-- Generator: Adobe Illustrator 27.1.1, SVG Export Plug-In . SVG Version: 6.00 Build 0)  -->
<svg version="1.1" id="Calque_1" xmlns="http://www.w3.org/2000/svg" xmlns:xlink="http://www.w3.org/1999/xlink" x="0px" y="0px"
	 viewBox="0 0 22.456 20.493" style="enable-background:new 0 0 22.456 20.493;" xml:space="preserve">
<style type="text/css">
	.st0{fill:#1D1D1B;}
</style>
<path class="st0" d="M19.001,9.082l-2.329,2.565c-0.157,0.182-0.393,0.261-0.602,0.209c-0.235-0.052-0.419-0.209-0.497-0.419
	l-1.466-4.162l-1.23,2.644c-0.104,0.235-0.34,0.366-0.601,0.366h-1.362l-1.963,3.245c-0.13,0.21-0.34,0.315-0.549,0.315H8.349
	c-0.236-0.026-0.472-0.158-0.55-0.393L5.391,7.904L4.423,10.05c-0.105,0.235-0.34,0.367-0.602,0.367H1.099
	c0.261,0.392,0.549,0.785,0.89,1.125l8.767,8.767c0.131,0.131,0.288,0.183,0.471,0.183c0.183,0,0.34-0.052,0.471-0.183l8.768-8.767
	c0.706-0.707,1.23-1.544,1.571-2.46H19.001z"/>
<path class="st0" d="M3.402,9.108l1.439-3.063c0.105-0.235,0.34-0.366,0.602-0.366s0.497,0.157,0.602,0.392l2.459,5.706l1.519-2.486
	c0.13-0.183,0.34-0.314,0.549-0.314h1.309L13.61,5.26c0.105-0.235,0.366-0.392,0.628-0.366c0.262,0,0.497,0.183,0.576,0.444
	l1.623,4.632l1.78-1.963c0.131-0.13,0.288-0.209,0.497-0.209h3.664c0.053-0.34,0.078-0.681,0.078-1.02
	c0-1.806-0.706-3.507-1.989-4.79C19.184,0.706,17.483,0,15.678,0c-1.649,0-3.22,0.576-4.45,1.649C9.998,0.576,8.427,0,6.779,0
	c-1.806,0-3.507,0.706-4.79,1.989C0.706,3.272,0,4.973,0,6.779c0,0.81,0.157,1.623,0.419,2.381h2.983V9.108z"/>
</svg>
